<svg width="18" height="18" viewBox="0 0 18 18" fill="none" xmlns="http://www.w3.org/2000/svg">
<path d="M0.0541077 5.28937C0.0979156 4.33136 0.250076 3.67712 0.472549 3.10474C0.698456 2.5042 1.05276 1.96024 1.51062 1.51062C1.9601 1.05276 2.5042 0.698318 3.10474 0.472275C3.67726 0.249939 4.33136 0.0979156 5.28937 0.0543823C6.24916 0.010437 6.55582 0 9 0C11.4442 0 11.7508 0.010437 12.7106 0.0541077C13.6686 0.0979156 14.3227 0.250076 14.8953 0.472549C15.4958 0.698456 16.0398 1.05276 16.4894 1.51062C16.9472 1.9601 17.3017 2.50406 17.5277 3.1046C17.7501 3.67712 17.9021 4.33136 17.9456 5.28923C17.9896 6.24916 18 6.55568 18 8.99986C18 11.4442 17.9896 11.7508 17.9456 12.7106C17.9019 13.6685 17.7498 14.3227 17.5273 14.8953C17.3014 15.4957 16.9471 16.0398 16.4892 16.4892C16.0398 16.9471 15.4957 17.3014 14.8951 17.5273C14.3227 17.7499 13.6685 17.9019 12.7105 17.9458C11.7506 17.9896 11.444 17.9999 8.99986 17.9999C6.55568 17.9999 6.24902 17.9896 5.28923 17.9458C4.33122 17.9019 3.67712 17.7499 3.1046 17.5273C1.89569 17.0598 0.940018 16.1042 0.472549 14.8953C0.249939 14.3227 0.0979156 13.6685 0.0541077 12.7106C0.010437 11.7507 0 11.4442 0 9C0 6.55568 0.010437 6.24916 0.0541077 5.28937ZM1.67418 12.6369C1.71414 13.5144 1.86081 13.991 1.98399 14.308C2.2868 15.093 2.90712 15.7133 3.69209 16.0161C4.00919 16.1393 4.48572 16.286 5.36325 16.326C6.31206 16.3694 6.59674 16.3784 9 16.3784C11.4034 16.3784 11.6879 16.3694 12.6369 16.326C13.5143 16.286 13.9908 16.1393 14.308 16.0161C14.6989 15.8718 15.0525 15.6418 15.3428 15.3428C15.6418 15.0525 15.8718 14.699 16.0161 14.308C16.1393 13.991 16.286 13.5144 16.326 12.6369C16.3692 11.6879 16.3784 11.4033 16.3784 9.00014C16.3784 6.59688 16.3692 6.31233 16.326 5.36325C16.2859 4.48572 16.1393 4.00919 16.0161 3.69209C15.8718 3.30112 15.6416 2.94749 15.3428 2.65718C15.0525 2.35822 14.6989 2.12819 14.3079 1.98399C13.9908 1.86067 13.5143 1.71414 12.6367 1.67404C11.6878 1.63078 11.4031 1.62158 9 1.62158H9.00014C6.59702 1.62158 6.31233 1.63078 5.36325 1.67418C4.48572 1.71414 4.00932 1.86081 3.69209 1.98399C3.30125 2.12833 2.94763 2.35835 2.65732 2.65718C2.35835 2.94749 2.12833 3.30112 1.98413 3.69209C1.86081 4.00919 1.71414 4.48572 1.67418 5.36325C1.63092 6.31219 1.62172 6.59688 1.62172 9C1.62172 11.4033 1.63078 11.6878 1.67418 12.6369Z" fill="#FF7900"/>
<path d="M9.00005 4.37805C11.5524 4.37805 13.6216 6.44733 13.6216 8.99973C13.6216 11.5521 11.5524 13.6213 9.00005 13.6213C6.44751 13.6213 4.37837 11.5521 4.37837 8.99973C4.37837 6.44733 6.44751 4.37805 9.00005 4.37805ZM9.00005 11.9997C10.6568 11.9995 12 10.6565 11.9999 8.99959C11.9999 7.34285 10.6568 5.99963 8.99991 5.99963C7.34303 5.99977 5.99995 7.34285 5.99995 8.99959C5.99995 10.6565 7.34317 11.9997 9.00005 11.9997Z" fill="#FF7900"/>
<path d="M3.11583 4.19582C3.11583 4.79224 3.59937 5.27577 4.19579 5.27577C4.79234 5.27577 5.27588 4.79224 5.27588 4.19582C5.27588 3.59926 4.79234 3.11572 4.19579 3.11572C3.59937 3.11572 3.11583 3.59926 3.11583 4.19582Z" fill="#FF7900"/>
</svg>
