<svg width="13" height="12" viewBox="0 0 13 12" fill="none" xmlns="http://www.w3.org/2000/svg">
<path d="M11.9737 7.90106C11.1718 7.90106 10.3863 7.78548 9.64189 7.55873C9.27858 7.44315 8.866 7.53221 8.62722 7.75706L7.15137 8.7859C5.45795 7.9516 4.37416 6.95179 3.48265 5.4L4.56711 4.0699C4.84011 3.8179 4.93796 3.44905 4.82096 3.10358C4.57327 2.412 4.44738 1.68632 4.44738 0.947369C4.44738 0.425043 3.98692 0 3.42107 0H1.02632C0.460463 0 0 0.425043 0 0.947369C0 7.04147 5.37174 12 11.9737 12C12.5395 12 13 11.575 13 11.0526V8.84843C13 8.3261 12.5395 7.90106 11.9737 7.90106Z" fill="white"/>
</svg>
