<svg width="15" height="15" viewBox="0 0 15 15" fill="none" xmlns="http://www.w3.org/2000/svg">
<path d="M7.49999 0C10.2569 0 12.5 2.24306 12.5 5.00001C12.5 5.82765 12.2931 6.64825 11.8997 7.3761L7.77342 14.8389C7.71849 14.9384 7.61381 15 7.49999 15C7.38617 15 7.2815 14.9384 7.22656 14.8389L3.09875 7.37364C2.70691 6.64825 2.49998 5.82762 2.49998 4.99998C2.49998 2.24306 4.74304 0 7.49999 0ZM7.49999 7.5C8.87847 7.5 9.99998 6.37849 9.99998 5.00001C9.99998 3.62153 8.87847 2.50002 7.49999 2.50002C6.12152 2.50002 5 3.62153 5 5.00001C5 6.37849 6.12152 7.5 7.49999 7.5Z" fill="#FA6B03"/>
</svg>
