<svg width="96" height="98" viewBox="0 0 96 98" fill="none" xmlns="http://www.w3.org/2000/svg">
<g filter="url(#filter0_d_1453_701)">
<rect x="11" y="7" width="74" height="76" rx="37" fill="#844A92"/>
</g>
<path d="M63.7355 47.2671C64.779 38.4833 63.2341 32.9378 60.4476 30.4296L60.449 30.4281C55.9514 26.1448 40.7623 25.5108 35.3815 30.6205C32.9651 33.12 32.114 36.7883 32.0207 41.3296C31.9274 45.8724 31.8167 54.3822 39.7464 56.6907H39.7537L39.7464 60.2162C39.7464 60.2162 39.6925 61.6445 40.6049 61.9316C41.6484 62.2697 42.1206 61.6066 45.3662 57.7299C50.7936 58.2006 54.9618 57.1221 55.4355 56.9647C56.5315 56.5975 62.7328 55.7769 63.7355 47.2671ZM45.9011 55.2494C45.9011 55.2494 42.466 59.5327 41.3977 60.6447C41.0479 61.0061 40.6646 60.9726 40.6704 60.2556C40.6704 59.7848 40.6967 54.4026 40.6967 54.4026C33.9736 52.4759 34.37 45.2296 34.4429 41.4389C34.5158 37.6467 35.2095 34.541 37.2557 32.4496C41.9763 28.0234 55.2927 29.013 58.6855 32.2018C62.8333 35.8789 61.357 46.2673 61.3657 46.6215C60.5131 53.7249 55.488 54.1752 54.564 54.4828C54.169 54.6139 50.5036 55.5569 45.9011 55.2494Z" fill="white"/>
<path d="M47.8014 33.2816C47.2403 33.2816 47.2403 34.1561 47.8014 34.1634C52.1547 34.1969 55.74 37.2312 55.7793 42.7971C55.7793 43.3844 56.6392 43.3771 56.6319 42.7898H56.6305C56.5838 36.7925 52.6692 33.3151 47.8014 33.2816Z" fill="white"/>
<path d="M53.5279 41.8747C53.5148 42.4547 54.3732 42.4824 54.3805 41.8951C54.4519 38.5882 52.413 35.8643 48.5815 35.5772C48.0203 35.5364 47.962 36.4181 48.5217 36.4589C51.8446 36.711 53.595 38.9788 53.5279 41.8747Z" fill="white"/>
<path d="M52.6095 45.6362C51.8895 45.2194 51.1564 45.4788 50.8533 45.8883L50.2193 46.7088C49.8972 47.1257 49.2953 47.0703 49.2953 47.0703C44.9027 45.9087 43.728 41.312 43.728 41.312C43.728 41.312 43.6741 40.6897 44.0763 40.356L44.8692 39.7001C45.2656 39.3853 45.5163 38.6275 45.1126 37.8827C44.0341 35.9342 43.3097 35.2623 42.941 34.7464C42.5533 34.2611 41.9704 34.1518 41.3641 34.4797H41.351C40.0903 35.2171 38.7102 36.5973 39.1518 38.0183C39.9052 39.5165 41.2898 44.2925 45.7028 47.901C47.7767 49.6076 51.0588 51.3565 52.4521 51.7602L52.4652 51.7806C53.8381 52.2383 55.1731 50.8042 55.8857 49.5056V49.4954C56.202 48.8673 56.0971 48.2727 55.6351 47.8835C54.816 47.0849 53.5801 46.2031 52.6095 45.6362Z" fill="white"/>
<path d="M49.1818 38.8305C50.5824 38.9122 51.2615 39.6438 51.3344 41.1464C51.3606 41.7337 52.2132 41.6929 52.187 41.1056C52.0937 39.1439 51.0706 38.0508 49.2284 37.9488C48.6673 37.9153 48.6148 38.797 49.1818 38.8305Z" fill="white"/>
<defs>
<filter id="filter0_d_1453_701" x="0" y="0" width="96" height="98" filterUnits="userSpaceOnUse" color-interpolation-filters="sRGB">
<feFlood flood-opacity="0" result="BackgroundImageFix"/>
<feColorMatrix in="SourceAlpha" type="matrix" values="0 0 0 0 0 0 0 0 0 0 0 0 0 0 0 0 0 0 127 0" result="hardAlpha"/>
<feOffset dy="4"/>
<feGaussianBlur stdDeviation="5.5"/>
<feComposite in2="hardAlpha" operator="out"/>
<feColorMatrix type="matrix" values="0 0 0 0 0 0 0 0 0 0 0 0 0 0 0 0 0 0 0.55 0"/>
<feBlend mode="normal" in2="BackgroundImageFix" result="effect1_dropShadow_1453_701"/>
<feBlend mode="normal" in="SourceGraphic" in2="effect1_dropShadow_1453_701" result="shape"/>
</filter>
</defs>
</svg>
