<svg width="96" height="98" viewBox="0 0 96 98" fill="none" xmlns="http://www.w3.org/2000/svg">
<g filter="url(#filter0_d_1453_702)">
<rect x="11" y="7" width="74" height="76" rx="37" fill="#64D06F"/>
</g>
<path d="M47.9034 33C47.1725 33 47.1725 34.139 47.9034 34.1485C53.5735 34.1921 58.2432 38.1443 58.2945 45.3938C58.2945 46.1588 59.4145 46.1493 59.405 45.3843H59.4031C59.3423 37.5729 54.2436 33.0437 47.9034 33Z" fill="white"/>
<path d="M55.3619 44.1924C55.3448 44.9479 56.4629 44.9839 56.4724 44.2189C56.5654 39.9118 53.9097 36.3639 48.9191 35.9899C48.1883 35.9368 48.1124 37.0852 48.8413 37.1384C53.1694 37.4668 55.4492 40.4205 55.3619 44.1924Z" fill="white"/>
<path d="M54.1657 49.0917C53.228 48.5488 52.2732 48.8867 51.8783 49.4201L51.0526 50.4888C50.6331 51.0317 49.8491 50.9596 49.8491 50.9596C44.1277 49.4467 42.5977 43.4595 42.5977 43.4595C42.5977 43.4595 42.5275 42.649 43.0514 42.2142L44.0841 41.36C44.6004 40.95 44.9269 39.9629 44.4011 38.9929C42.9963 36.4549 42.0529 35.5798 41.5727 34.9078C41.0677 34.2757 40.3084 34.1333 39.5187 34.5604H39.5016C37.8596 35.5209 36.062 37.3186 36.6372 39.1694C37.6186 41.1208 39.4219 47.3415 45.1699 52.0416C47.8711 54.2645 52.146 56.5424 53.9607 57.0682L53.9778 57.0948C55.766 57.6908 57.5048 55.8229 58.433 54.1316V54.1183C58.845 53.3001 58.7083 52.5257 58.1065 52.0188C57.0397 50.9786 55.43 49.8301 54.1657 49.0917Z" fill="white"/>
<path d="M49.7014 40.2274C51.5256 40.3337 52.4102 41.2867 52.5051 43.2438C52.5393 44.0088 53.6498 43.9556 53.6156 43.1906C53.4941 40.6356 52.1615 39.2119 49.7621 39.079C49.0313 39.0353 48.9629 40.1838 49.7014 40.2274Z" fill="white"/>
<defs>
<filter id="filter0_d_1453_702" x="0" y="0" width="96" height="98" filterUnits="userSpaceOnUse" color-interpolation-filters="sRGB">
<feFlood flood-opacity="0" result="BackgroundImageFix"/>
<feColorMatrix in="SourceAlpha" type="matrix" values="0 0 0 0 0 0 0 0 0 0 0 0 0 0 0 0 0 0 127 0" result="hardAlpha"/>
<feOffset dy="4"/>
<feGaussianBlur stdDeviation="5.5"/>
<feComposite in2="hardAlpha" operator="out"/>
<feColorMatrix type="matrix" values="0 0 0 0 0 0 0 0 0 0 0 0 0 0 0 0 0 0 0.55 0"/>
<feBlend mode="normal" in2="BackgroundImageFix" result="effect1_dropShadow_1453_702"/>
<feBlend mode="normal" in="SourceGraphic" in2="effect1_dropShadow_1453_702" result="shape"/>
</filter>
</defs>
</svg>
