<svg width="17" height="16" viewBox="0 0 17 16" fill="none" xmlns="http://www.w3.org/2000/svg">
<path d="M12.1835 11.0992L11.63 11.8806C11.5195 12.0366 11.3734 12.1696 11.1809 12.2175C10.5502 12.3744 8.87568 12.4452 6.32633 10.0458C3.77698 7.64644 3.85222 6.07044 4.01888 5.47682C4.06976 5.29559 4.21116 5.15808 4.37687 5.0541L5.2071 4.53317C5.82522 4.14533 5.99225 3.35931 5.58017 2.77755L4.01215 0.563882C3.65247 0.0560948 2.95907 -0.137907 2.36307 0.102496L1.65573 0.387808C1.1184 0.604549 0.68008 0.99353 0.418637 1.48566C0.20021 1.89681 0.0309134 2.32979 0.00797543 2.78897C-0.0643112 4.23602 0.272822 7.80113 4.49207 11.7722C8.71133 15.7432 12.4992 16.0605 14.0367 15.9925C14.5246 15.9709 14.9846 15.8116 15.4215 15.606C15.9444 15.3599 16.3577 14.9474 16.588 14.4417L16.8911 13.7759C17.1465 13.215 16.9404 12.5624 16.4009 12.2239L14.0489 10.7481C13.4307 10.3602 12.5956 10.5174 12.1835 11.0992Z" fill="white"/>
</svg>
