<svg width="80" height="76" viewBox="0 0 70 66" fill="none" xmlns="http://www.w3.org/2000/svg">
<path d="M33.4114 65.6349C32.1554 65.3048 30.7902 65.0848 29.5887 64.6447C24.4554 62.6642 20.9604 57.5481 20.8512 52.0468C20.7965 50.0114 20.8512 47.9759 20.8512 45.9404C20.8512 45.7204 20.8512 45.5003 20.8512 45.1703C18.8852 45.3353 16.9739 45.3903 15.0625 45.6654C14.5164 45.7204 14.0795 46.2705 13.588 46.6006C13.4242 46.7106 13.315 46.9857 13.2058 47.2057C12.5504 48.361 11.349 48.9111 10.093 48.636C8.83697 48.306 8.01782 47.2607 8.01782 45.8854C8.01782 45.4453 8.01782 45.0602 8.01782 44.6201C8.07243 44.015 8.4547 43.6299 8.94619 43.6299C9.49229 43.6299 9.81995 44.015 9.87456 44.6201C9.87456 45.0602 9.87456 45.5003 9.87456 45.9404C9.87456 46.3805 10.093 46.7106 10.5299 46.8206C10.9668 46.9307 11.2944 46.7656 11.5129 46.3805C12.4412 44.5651 13.9157 43.7949 15.8817 43.6849C18.6121 43.5749 21.288 43.3548 24.0185 43.1348C26.1483 42.9698 27.6774 41.2094 27.6774 39.0639C27.6774 36.9734 26.1483 35.213 24.0185 35.048C21.2334 34.8279 18.4483 34.6079 15.6086 34.4428C13.7519 34.3328 12.3866 33.5076 11.5675 31.8572C11.349 31.4171 11.0214 31.1421 10.5299 31.3071C10.0384 31.4171 9.81995 31.8022 9.87456 32.2973C9.87456 32.4624 9.87456 32.6274 9.87456 32.7925C9.87456 35.213 9.87456 37.5785 9.87456 39.9991C9.87456 40.3292 9.60151 40.7693 9.32846 40.9343C9.11002 41.0993 8.61853 41.0443 8.4547 40.8243C8.23626 40.6042 8.07243 40.1641 8.07243 39.834C8.01782 37.3035 8.07243 34.7179 8.07243 32.1873C8.07243 31.9673 8.12704 31.7472 8.12704 31.5272C8.34548 30.3719 9.21924 29.5467 10.3661 29.3817C11.5129 29.2166 12.5504 29.6017 13.0965 30.647C13.7519 32.0223 14.7895 32.5724 16.2639 32.5724C17.7384 32.6274 19.2675 32.7374 20.8512 32.8475C20.8512 32.6274 20.8512 32.4074 20.8512 32.1873C20.8512 28.3364 20.8512 24.5406 20.8512 20.6897C20.8512 10.8975 27.6774 2.86565 37.3434 1.54535C43.1866 0.720165 48.3199 2.48056 52.6887 6.38645C53.2348 6.88156 53.2895 7.43169 52.9618 7.87179C52.5795 8.31189 52.0334 8.25688 51.4873 7.81678C48.9207 5.50625 45.9717 4.02091 42.5859 3.47079C34.0121 2.09548 25.7114 7.43169 23.4178 15.8486C23.0355 17.2789 22.8171 18.8743 22.8171 20.3596C22.7079 24.3755 22.7625 28.4465 22.7625 32.4624C22.7625 32.6274 22.7625 32.7374 22.7625 32.8475C23.7455 33.0125 24.6738 33.0675 25.5476 33.3426C26.3121 33.6176 26.749 33.6176 27.4043 33.0125C28.3327 32.0773 29.5887 31.7472 30.8994 31.6922C32.7015 31.6372 34.5582 31.6922 36.3604 31.5272C38.1625 31.3621 39.7462 30.592 41.0022 29.2166C42.9136 27.1262 42.9682 24.2105 41.0568 22.12C39.5824 20.5247 37.7256 19.7545 35.6504 19.6995C33.2476 19.5895 30.8448 19.6995 28.2781 19.6995C28.1143 20.6347 27.9504 21.6249 27.8412 22.6151C27.8412 22.7802 27.8412 22.8902 27.8412 23.0552C27.7866 23.7154 27.4043 24.0455 26.8582 24.0455C26.3121 24.0455 25.8753 23.6054 25.9845 23.0002C26.2029 21.4599 26.3668 19.8095 26.8582 18.3242C28.6604 13.208 32.1008 9.6872 37.398 8.3669C43.5143 6.88156 49.4668 10.2373 51.815 16.2337C54.4363 22.8352 52.088 30.647 46.1902 34.8279C45.098 35.5981 44.2242 36.5883 43.9512 37.9636C43.8419 38.4587 43.7873 39.0089 43.7873 39.504C43.7873 41.8695 43.7873 44.2351 43.7873 46.6006C43.7327 51.2216 40.6746 54.9075 36.1419 55.5676C32.5923 56.1178 29.7526 54.7424 27.6228 51.8818C27.1859 51.2767 27.1859 50.7265 27.6774 50.3965C28.1689 50.0664 28.715 50.1764 29.1519 50.8365C31.3363 53.7522 34.9405 54.6874 38.0533 53.037C40.4561 51.7718 41.7668 49.6813 41.876 46.9857C41.9852 44.5651 41.9306 42.1446 41.876 39.724C41.8214 37.0284 42.9136 34.8829 45.1526 33.3426C50.0675 29.8218 52.1973 23.3853 50.3951 17.774C47.9377 10.1823 39.5277 7.54172 33.2476 12.4378C31.4455 13.8682 30.0256 15.6286 29.0426 17.8291C29.3157 17.8291 29.5341 17.8841 29.7526 17.8841C31.9916 17.9391 34.2306 17.774 36.415 18.0491C39.8554 18.4342 42.5859 20.0846 43.9512 23.4953C45.098 26.356 44.0058 29.5467 41.3299 31.5822C39.91 32.6824 38.3263 33.3426 36.5242 33.5626C36.0327 33.6176 35.9781 33.7827 35.9781 34.2228C35.9781 36.2582 35.9781 38.2937 35.9781 40.3292C35.9781 43.4649 33.9575 45.5003 30.8448 45.5003C30.2987 45.5003 29.7526 45.5003 29.2065 45.5003C28.1689 45.5554 27.2405 45.2803 26.5306 44.4551C25.9299 44.6201 25.3292 44.8402 24.7285 44.9502C24.1277 45.0602 23.4724 45.0602 22.8717 45.1153C22.8717 45.1703 22.8171 45.1703 22.8171 45.2253C22.8717 48.196 22.6533 51.2216 23.0902 54.0823C23.9639 59.8036 29.2611 63.8745 35.159 63.7645C40.8384 63.6545 45.8079 59.1984 46.5724 53.5872C46.9001 51.1116 46.6817 48.636 46.2994 46.1605C45.6441 41.3744 47.0639 37.2485 50.6136 34.0027C53.2348 31.5822 55.31 28.8316 56.293 25.3108C57.6582 20.4697 57.0575 15.9036 54.5455 11.6126C54.4909 11.5026 54.4363 11.3926 54.327 11.2826C53.9994 10.6774 54.054 10.1273 54.5455 9.85224C55.037 9.57718 55.5285 9.6872 55.9107 10.2923C56.8937 11.8327 57.6582 13.4281 58.0951 15.1885C60.0065 22.8352 58.2043 29.4917 52.4157 34.8279C49.3029 37.7436 47.7192 41.1544 48.0469 45.3903C48.1561 47.0407 48.4292 48.6911 48.5384 50.3965C48.7022 52.927 48.3746 55.4026 47.1731 57.7131C44.9341 62.1691 41.3299 64.8097 36.3604 65.5249C36.2511 65.5249 36.1419 65.5799 36.0327 65.6349C35.159 65.6349 34.2852 65.6349 33.4114 65.6349ZM28.0597 34.9379C30.1348 37.7436 30.0802 40.4942 27.8958 43.2998C28.2781 43.4099 28.5512 43.5199 28.8788 43.5199C29.5341 43.5749 30.1894 43.5199 30.7902 43.5199C32.8107 43.5199 34.0121 42.3646 34.0121 40.2742C34.0121 38.2387 34.0121 36.2032 34.0121 34.1678C34.0121 34.0027 34.0121 33.7827 33.9575 33.5076C31.937 33.8377 29.698 32.9575 28.0597 34.9379Z" fill="#FF7900"/>
</svg>
