<svg width="71" height="75" viewBox="0 0 71 75" fill="none" xmlns="http://www.w3.org/2000/svg">
<path d="M41.3389 6.17925C42.7402 6.69812 43.3474 7.78302 43.4408 9.24529C43.5342 10.8962 43.8145 12.5 44.0014 14.1509C44.0481 14.5755 44.1882 14.8113 44.6086 14.9528C45.2625 15.1887 45.8698 15.4245 46.5237 15.7547C46.8974 15.9434 47.1777 15.8962 47.5046 15.6132C48.906 14.4811 50.3073 13.3962 51.7086 12.2642C53.1099 11.1321 54.4178 11.2264 55.679 12.5C57.5474 14.3868 59.3691 16.2264 61.2375 18.1132C62.452 19.3868 62.5454 20.7076 61.4711 22.0755C60.3968 23.4906 59.2757 24.9057 58.1546 26.3208C57.8744 26.6509 57.8277 26.934 58.0145 27.3585C58.2948 27.9717 58.575 28.5849 58.7619 29.1981C58.902 29.5755 59.1356 29.7642 59.556 29.8113C61.3777 30 63.1527 30.2359 64.9744 30.4717C66.6092 30.6604 67.5435 31.6981 67.5435 33.3962C67.5435 36.0849 67.5435 38.7736 67.5435 41.4623C67.5435 43.1132 66.656 44.1509 65.0211 44.3396C63.1994 44.5755 61.4244 44.7642 59.6027 45C59.1823 45.0472 58.902 45.2359 58.7619 45.6604C58.5283 46.2736 58.2948 46.934 58.0145 47.5C57.8277 47.8774 57.8744 48.1604 58.1079 48.4906C59.229 49.9057 60.3033 51.3208 61.4244 52.7359C62.5454 54.1981 62.4987 55.4717 61.1908 56.7925C59.3691 58.6321 57.5007 60.5189 55.679 62.3585C54.4178 63.6321 53.1099 63.6792 51.7553 62.5943C50.354 61.4623 48.906 60.3774 47.5046 59.2453C47.1777 58.9623 46.8974 58.9623 46.5237 59.1509C45.9165 59.434 45.2625 59.717 44.6086 59.9528C44.2349 60.0943 44.0948 60.3302 44.0481 60.7075C43.8612 62.5 43.6277 64.2925 43.4408 66.0849C43.254 67.8302 42.2264 68.7264 40.4981 68.7264C37.8356 68.7264 35.2198 68.7264 32.5573 68.7264C30.8757 68.7264 29.8481 67.783 29.6612 66.0849C29.4744 64.2925 29.2408 62.5 29.054 60.7075C29.0073 60.283 28.8204 60.0472 28.4468 59.9057C27.7928 59.6698 27.1856 59.3868 26.5316 59.1038C26.1579 58.9151 25.9244 59.0094 25.5974 59.2453C24.1961 60.3774 22.7948 61.5094 21.3467 62.5943C19.9454 63.6792 18.6375 63.6321 17.4231 62.3585C15.5546 60.4717 13.6862 58.5849 11.8178 56.6981C10.6033 55.4717 10.5566 54.1509 11.5843 52.783C12.6586 51.3679 13.7796 49.9528 14.9007 48.5377C15.181 48.1604 15.2744 47.8774 15.0408 47.4528C14.7606 46.8396 14.4803 46.2264 14.2935 45.6132C14.1533 45.1887 13.8731 45.0472 13.4994 45C11.8645 44.8113 10.2764 44.5283 8.64149 44.434C7.14675 44.3396 6.11912 43.7264 5.55859 42.3113C5.55859 39.0566 5.55859 35.8019 5.55859 32.5472C6.16583 30.8019 7.56714 30.4717 9.1553 30.3302C10.6033 30.1887 12.0981 30 13.5461 29.8113C13.9198 29.7642 14.1533 29.5755 14.2935 29.1981C14.527 28.5849 14.7606 27.9245 15.0408 27.3585C15.2744 26.934 15.181 26.6038 14.9007 26.2736C13.7796 24.9057 12.7053 23.4906 11.631 22.0755C10.5099 20.6604 10.6033 19.3396 11.8645 18.066C12.2849 17.6415 12.6586 17.2642 13.079 16.8396C13.5461 16.4151 14.0132 16.3679 14.4336 16.7453C14.8073 17.1226 14.8073 17.6415 14.3869 18.1132C13.9665 18.5377 13.5461 18.9623 13.1724 19.3868C12.6119 19.9528 12.6119 20.2359 13.079 20.8491C14.2 22.2642 15.2744 23.7264 16.3954 25.1415C17.1428 26.0849 17.2829 27.0283 16.7691 28.066C16.4889 28.6321 16.2553 29.2453 16.0218 29.8585C15.6481 30.8962 14.9007 31.4623 13.8264 31.6038C12.0514 31.7925 10.2764 32.0283 8.50135 32.2642C7.66057 32.3585 7.42701 32.5943 7.42701 33.4434C7.42701 36.0849 7.42701 38.7264 7.42701 41.3679C7.42701 42.217 7.66057 42.4528 8.50135 42.5472C10.2764 42.7358 12.0514 42.9717 13.8264 43.2075C14.9007 43.3491 15.6481 43.8679 16.0218 44.9528C16.2553 45.6604 16.5823 46.3208 16.8625 46.9811C17.2362 47.8774 17.1428 48.7264 16.5356 49.4811C15.4145 50.9434 14.2935 52.3585 13.1724 53.8208C12.5652 54.6226 12.5652 54.8113 13.2658 55.5189C15.0875 57.3585 16.9092 59.1981 18.731 61.0377C19.3382 61.6509 19.6185 61.6981 20.2724 61.1321C21.7204 60 23.1217 58.8679 24.5698 57.7359C25.4106 57.0283 26.2981 56.934 27.279 57.4057C27.9796 57.7358 28.727 58.0189 29.4744 58.3019C30.2218 58.6321 30.7356 59.1981 30.829 60.0472C31.0625 61.934 31.2961 63.8679 31.5296 65.7547C31.6231 66.6981 31.8566 66.8868 32.7441 66.8868C35.3599 66.8868 37.929 66.8868 40.5448 66.8868C41.3856 66.8868 41.6191 66.6509 41.7125 65.8019C41.8994 64.0094 42.1329 62.217 42.3665 60.4245C42.5066 59.3396 43.0204 58.5849 44.0948 58.2076C44.7487 57.9717 45.356 57.6887 46.0099 57.4057C46.9908 56.934 47.8783 57.0755 48.7191 57.7359C50.1204 58.8679 51.5218 59.9528 52.9231 61.0849C53.7171 61.6981 53.9507 61.6981 54.6046 60.9906C56.4263 59.1509 58.2481 57.3113 60.0231 55.5189C60.7237 54.8113 60.7237 54.6226 60.1165 53.8208C59.0421 52.4057 57.9678 51.0377 56.8467 49.6226C56.1461 48.7264 56.006 47.8302 56.5198 46.7925C56.8 46.1792 57.0803 45.566 57.2671 44.9528C57.6408 43.9151 58.3882 43.3491 59.4625 43.2075C61.2375 43.0189 63.0125 42.783 64.7875 42.5472C65.6283 42.4528 65.8619 42.217 65.8619 41.3679C65.8619 38.7264 65.8619 36.0849 65.8619 33.4434C65.8619 32.5943 65.6283 32.3585 64.7875 32.2642C63.0125 32.0755 61.2375 31.8396 59.4625 31.6038C58.3882 31.4623 57.6408 30.9434 57.2671 29.8585C57.0336 29.1509 56.7066 28.4906 56.4264 27.8302C56.0527 26.934 56.1461 26.0849 56.7533 25.3302C57.8744 23.8679 59.0421 22.4057 60.1632 20.9434C60.7237 20.1887 60.7237 19.9528 60.0698 19.2925C58.2481 17.4528 56.4263 15.6132 54.6046 13.7736C53.9507 13.1132 53.7171 13.1132 53.0165 13.6792C51.6152 14.7642 50.2139 15.8962 48.8125 17.0283C47.925 17.7359 47.0375 17.8774 46.0099 17.4057C45.356 17.0755 44.6553 16.8396 43.9546 16.5566C43.1606 16.2264 42.6467 15.6132 42.5066 14.7642C42.2731 12.8774 42.0395 10.9434 41.806 9.05661C41.7125 8.20755 41.479 7.9717 40.6382 7.9717C38.0224 7.9717 35.4066 7.9717 32.7908 7.9717C31.95 7.9717 31.7165 8.20755 31.6231 9.05661C31.4362 10.8491 31.2027 12.6415 30.9691 14.434C30.829 15.5189 30.3152 16.2736 29.2408 16.6509C28.5402 16.8868 27.8862 17.217 27.2323 17.5C26.3448 17.8774 25.504 17.783 24.7566 17.1698C23.3086 16.0377 21.8606 14.8585 20.4125 13.7264C19.6652 13.1604 19.4316 13.1604 18.7777 13.8208C18.404 14.1981 18.0303 14.6226 17.6099 15C17.1895 15.4245 16.629 15.4245 16.2553 15.0472C15.8816 14.6698 15.8816 14.1509 16.3487 13.6792C16.7691 13.2076 17.2362 12.783 17.6566 12.3585C18.7777 11.2736 20.1323 11.1792 21.3467 12.1698C22.7481 13.3019 24.1961 14.3868 25.5974 15.5189C25.9711 15.8491 26.2981 15.9434 26.8119 15.6604C27.3724 15.3774 27.9796 15.1415 28.5869 14.9057C28.9606 14.7642 29.1474 14.5283 29.1941 14.1509C29.381 12.3585 29.6145 10.566 29.8014 8.77359C29.9415 7.40567 30.6421 6.60378 31.8566 6.13208C34.8928 6.17925 38.1158 6.17925 41.3389 6.17925Z" fill="#FF7900"/>
<path d="M32.4639 51.3679C32.4639 50.8019 32.4639 50.3302 32.4639 49.8585C32.4639 49.2925 32.7909 48.9623 33.3047 48.9151C33.8185 48.8679 34.1922 49.2453 34.2389 49.8113C34.2856 50.2359 34.2856 50.7076 34.2389 51.1321C34.1922 51.6981 34.4257 51.8868 34.8928 51.8396C35.0797 51.8396 35.2665 51.8396 35.5001 51.8396C35.5001 51.6038 35.5468 51.4151 35.5468 51.1792C35.5468 49.7642 35.5468 48.3491 35.5468 46.9811C35.5468 46.2264 35.8738 45.8491 36.4343 45.8491C36.9948 45.8491 37.3218 46.2264 37.3218 46.9811C37.3218 48.5849 37.3218 50.1887 37.3218 51.8396C37.5086 51.8396 37.6488 51.8396 37.8356 51.8868C38.4428 51.934 38.6764 51.6981 38.6297 51.0377C38.583 48.6321 38.6297 46.2736 38.6297 43.8679C38.6297 43.6321 38.6297 43.4434 38.6297 43.3019C37.1349 43.3019 35.7336 43.3019 34.2389 43.3019C34.2389 43.9151 34.2856 44.6226 34.2389 45.283C34.1922 45.6132 34.0988 45.9906 33.8652 46.1792C33.6784 46.3679 33.2113 46.4151 32.9777 46.2736C32.7442 46.1321 32.4639 45.7547 32.4639 45.4717C32.3705 44.6698 32.4172 43.8208 32.4639 43.0189C32.4639 42.5472 32.3238 42.3113 31.9034 42.0755C26.1113 38.7264 25.7843 30.3302 31.3428 26.5094C31.9501 26.0849 32.604 25.8491 33.3047 26.2264C34.0053 26.6038 34.1455 27.2641 34.1455 27.9717C34.1455 29.4811 34.1455 30.9434 34.1455 32.4528C34.1455 32.7359 34.2856 33.0189 34.4724 33.2547C35.0797 33.9151 35.6869 34.5283 36.3409 35.2358C37.1349 34.4811 37.8356 33.7736 38.5363 33.066C38.6764 32.9245 38.6764 32.6415 38.6764 32.4528C38.6764 30.9434 38.6764 29.434 38.6764 27.9245C38.6764 27.1698 38.8632 26.6038 39.5172 26.2264C40.1711 25.8962 40.7784 26.0377 41.3856 26.4623C46.9909 30.1887 46.7573 38.6321 40.9652 42.0283C40.4981 42.3113 40.358 42.5472 40.4047 43.066C40.4514 45.5189 40.4047 48.0189 40.4047 50.4717C40.4047 50.7076 40.4047 50.8962 40.4047 51.2264C40.7316 51.1321 40.9652 51.0849 41.1987 50.9906C50.0737 47.8302 53.5303 36.9811 48.252 29.1509C48.1119 28.9623 47.9718 28.7736 47.8784 28.5849C47.6915 28.1132 47.7849 27.7358 48.2053 27.4528C48.579 27.1698 48.9527 27.217 49.3264 27.5472C49.4665 27.6415 49.5132 27.783 49.6066 27.9245C56.1928 37.217 51.1948 50.6132 40.1244 53.2076C30.9691 55.3302 22.0941 49.4811 20.4126 40.1415C18.7777 31.1792 25.0836 22.4057 34.052 21.1792C38.4428 20.566 42.4599 21.6038 46.0099 24.2453C46.2902 24.4811 46.5705 24.8585 46.5705 25.2358C46.6172 25.8491 45.9165 26.2264 45.356 25.9906C45.1691 25.8962 45.029 25.8019 44.8422 25.6604C35.9672 19.1038 23.402 24.5283 22.0474 35.566C21.2066 42.3585 25.3639 49.0094 31.8099 51.0849C32.0902 51.3208 32.2303 51.3208 32.4639 51.3679ZM40.5915 28.3019C40.5915 29.9528 40.6382 31.4623 40.5448 33.0189C40.5448 33.4906 40.3113 34.0566 39.9843 34.434C39.2369 35.283 38.3961 36.0377 37.5553 36.7925C36.808 37.5 35.9672 37.5 35.1731 36.7453C34.6126 36.1792 34.052 35.566 33.4448 35.0472C32.5573 34.2925 32.2303 33.4434 32.277 32.2642C32.3705 30.9906 32.277 29.6698 32.277 28.3491C30.0349 29.4811 28.6336 32.9717 29.2876 35.8962C29.9882 39.1038 32.8376 41.5566 36.1073 41.6509C39.4238 41.7925 42.4132 39.6226 43.3941 36.4151C44.3751 33.3962 43.1606 29.9057 40.5915 28.3019Z" fill="#FF7900"/>
</svg>
